<?xml version="1.0" encoding="utf-8"?>
<!-- Generator: Adobe Illustrator 19.1.0, SVG Export Plug-In . SVG Version: 6.00 Build 0)  -->
<svg version="1.1" id="iconmonstr" xmlns="http://www.w3.org/2000/svg" xmlns:xlink="http://www.w3.org/1999/xlink" x="0px" y="0px"
	 viewBox="0 0 24 18" style="enable-background:new 0 0 24 18;" xml:space="preserve">
<style type="text/css">
	.st0{fill:#FF4545;}
	.st1{fill:#FFFFFF;}
</style>
<g>
	<g>
		<circle cx="8.5" cy="16.5" r="1.5"/>
		<path d="M19.8,0l-3.4,12h-2.1l2.5-9h-6C10.9,3.5,11,4,11,4.5C11,8.1,8.1,11,4.5,11c-0.4,0-0.8,0-1.2-0.1L4.6,14h13.2l3.5-12h1.9
			L24,0H19.8z"/>
		<circle cx="13.5" cy="16.5" r="1.5"/>
	</g>
	<g id="trash-can-3_2_">
		<g>
			<path class="st0" d="M9,4.5C9,7,7,9,4.5,9C2,9,0,7,0,4.5S2,0,4.5,0C7,0,9,2,9,4.5z"/>
		</g>
	</g>
	<g>
		<path class="st1" d="M4.1,3.8H3.2l0-0.3c0-0.5,0.1-0.9,0.3-1.2C3.7,2,4,1.9,4.5,1.9c0.4,0,0.8,0.1,1,0.3c0.2,0.2,0.4,0.5,0.4,1
			c0,0.4-0.1,0.9-0.4,1.4L4.6,6.2h1.2v0.9H3.1L4.3,5c0.1-0.3,0.2-0.5,0.3-0.6s0.1-0.3,0.2-0.5c0.1-0.2,0.1-0.5,0.1-0.6
			c0-0.2,0-0.3-0.1-0.4C4.8,2.7,4.7,2.6,4.5,2.6c-0.3,0-0.4,0.3-0.4,0.8L4.1,3.8z"/>
	</g>
</g>
</svg>
