<?xml version="1.0" encoding="utf-8"?>
<!-- Generator: Adobe Illustrator 19.1.0, SVG Export Plug-In . SVG Version: 6.00 Build 0)  -->
<svg version="1.1" id="Layer_1" xmlns="http://www.w3.org/2000/svg" xmlns:xlink="http://www.w3.org/1999/xlink" x="0px" y="0px"
	 viewBox="0 0 200 97.9" style="enable-background:new 0 0 200 97.9;" xml:space="preserve">
<style type="text/css">
	.st0{fill:#010101;}
</style>
<g>
	<path class="st0" d="M130,11.2c0.8,0.7,1.8,1.2,3,1.2c0.4,0,0.8,0,1.2-0.1c2.3-0.4,4.4-2.1,5.4-4.2c0.2-0.4,0.4-0.9,0.5-1.3
		c0.1-0.4,0.2-0.9,0.2-1.4v0c0-0.4,0-0.8-0.1-1.2c-0.2-1.2-0.7-2.2-1.5-3c-0.8-0.7-1.8-1.2-3-1.3c-0.4,0-0.8,0-1.1,0.1
		c-2.3,0.4-4.4,2.1-5.4,4.2c-0.2,0.4-0.4,0.9-0.5,1.3c-0.1,0.5-0.2,0.9-0.2,1.4l0,0c0,0.4,0,0.9,0.1,1.3
		C128.7,9.5,129.2,10.5,130,11.2z"/>
	<path class="st0" d="M199.6,28.3c-0.4-0.2-0.8-0.3-1.6-0.7c-0.5-0.2-1-0.4-1.6-0.7v0c0,0,0,0,0,0c-0.3-0.1-0.7,0.1-0.8,0.4
		c-2.4,7-5.7,11.2-8.8,13c-1.2,0.7-2.3,1-3.3,0.9c-1,0-1.8-0.4-2.5-1.1c-1-1-1.7-2.7-1.7-5.1c3.5-1.2,7-2.9,9.7-5.4
		c0.5-0.5,1-1.1,1.5-1.6c0.5-0.6,0.9-1.2,1.3-1.8l0,0c1.3-2.2,1.7-4.5,1.6-6.5c0-0.4-0.1-0.8-0.1-1.2c-0.1-0.4-0.1-0.7-0.3-1
		c0,0,0,0,0,0l0,0l0,0c-0.9-2.8-2.9-4.2-5.3-4.7c-0.5-0.1-0.9-0.2-1.4-0.2c-0.5,0-0.9,0-1.4,0l0,0c-4.8,0.3-10.7,3.4-14.4,10.4
		c-0.7,1.3-1.3,2.8-1.8,4.5c-0.5,1.5-0.9,3.2-1.1,5c-1.1,0.6-2.1,0.9-3,0.8c-0.6,0-1.2-0.2-1.7-0.5c-0.5-0.3-0.9-0.8-1.2-1.3
		c-0.5-0.9-0.8-2.1-0.8-3.3c3.8-1.3,6.1-3.5,7.5-5.7c0.7-1.2,1.1-2.3,1.2-3.4c0.2-1.1,0.1-2.2-0.2-3c-0.3-0.9-0.8-1.6-1.5-2.1
		c-0.3-0.2-0.5-0.3-0.8-0.4c-1.7-0.7-3.5-0.3-5.1,0.7c-1.5,0.9-2.9,2.3-3.8,3.9c-0.1-0.4-0.2-0.8-0.2-1.2c0-0.2,0-0.4-0.1-0.5
		c0-0.2,0-0.3,0-0.5v0c0,0,0,0,0,0c0-0.4-0.4-0.6-0.7-0.6c-2,0.2-3.6,0.4-5.2,0.6c-1.8,0.2-3.7,0.4-5.2,0.6c-0.3,0-0.5,0.2-0.6,0.5
		c-0.5,2.4-1.1,4.9-1.6,7.4c-0.5,2.4-1.1,4.8-1.6,7.4c-1.8,6.9-3.9,10.3-5.6,11.7c-0.3,0.2-0.6,0.4-0.9,0.5
		c-0.3,0.1-0.5,0.1-0.7,0.1h0c-0.3,0-0.4-0.8-0.3-1.8c0-1.3,0.3-2.7,0.5-3.5c0.3-1.7,0.7-3.4,1-5.1c0.3-1.7,0.7-3.4,1-5.1l0,0
		c0.4-2,0.8-4,1.2-6c0.3-1.4,0.6-2.7,0.9-4.2c0-0.1,0-0.2,0-0.3c-0.1-0.4-0.4-0.6-0.7-0.5c-2.2,0.3-2.6,0.4-3.1,0.5
		c-2.2,0.3-4.4,0.7-7.3,1.1c-0.3,0-0.5,0.2-0.6,0.5c-0.7,3.6-1.4,7.2-2.1,10.9c-0.4,2.3-0.9,4.7-1.4,7l0,0c-0.1,0.5-0.2,1-0.3,1.5
		c-0.4,2-0.9,3.9-0.9,5.9c0,0,0,0,0,0l0,0c0,3.3,1,6,2.9,7.4c0.4,0.3,0.8,0.5,1.3,0.7c0.5,0.2,1,0.3,1.5,0.3l0,0
		c2.1,0.1,5.2-0.7,8.1-3.1c0.6-0.5,1.1-1,1.7-1.6c0,0,0.1-0.1,0.1-0.1c0,0.3-0.1,0.6-0.1,0.9l-0.1,0.4c0,0.1,0,0.1,0,0.2
		c0.1,0.3,0.4,0.6,0.7,0.5c1.8-0.3,3.5-0.5,5.2-0.6c1.6-0.2,3.3-0.3,4.9-0.4c0.3,0,0.5-0.2,0.6-0.5l2.9-12.4
		c0.4-1.7,0.8-3.4,1.2-5.1c0.3-1.3,0.6-2.7,0.9-4c0,0.1,0.1,0.1,0.1,0.2c0,1.4,0.2,2.6,0.5,3.8l0,0c0.5,2.1,1.5,3.8,3,4.9
		c1.4,1.1,3.3,1.7,5.6,1.7c1,0,2-0.1,3.1-0.4c0.3,2.4,1.1,5.2,2.5,7.2c0.3,0.5,0.6,0.9,1,1.3c0.4,0.4,0.8,0.7,1.2,1l0,0
		c3.2,2.2,6.9,2.6,10.4,2c0.7-0.1,1.3-0.3,2-0.5c0.6-0.2,1.3-0.4,1.9-0.7v0c3.4-1.5,7.2-5.3,10.3-11.1c0.6-1.1,1.2-2.3,1.7-3.6
		c0.5-1.3,1.1-2.6,1.5-4l0,0h0C200.1,28.7,199.9,28.4,199.6,28.3z M182.2,21.2c0.7-1,1.5-1.9,2.2-2.5c0.6-0.6,1.3-0.9,1.7-1
		c0.2,0,0.4,0,0.6,0.1l0,0l0,0c0.4,0.2,0.6,0.6,0.8,0.9c0.3,0.6,0.2,1.4,0,2.3c-0.3,1-0.8,2.1-1.5,3.1c-1.7,2.6-4.5,5.1-7.7,6.7
		C178.5,28,180.2,24.1,182.2,21.2z"/>
	<path class="st0" d="M198.1,55.4c-7.9-1.1-15.9-2-24-2.5c-8.2-0.5-16.4-0.5-24.7,0c-8.3,0.6-16.6,1.6-24.9,3.1
		c-7.9,1.4-15.8,3.1-23.7,5c0.1-0.6,0.2-1.1,0.3-1.7c0.2-0.8,0.3-1.6,0.5-2.4c2,1.5,4.9,1.6,7.8,0.8c0.6-0.2,1.3-0.4,1.9-0.6
		c0.6-0.3,1.2-0.5,1.8-0.9l0,0c3.5-2,6.2-5.7,8.1-10c0.3-0.8,0.7-1.7,1-2.5c0.3-0.9,0.6-1.7,0.8-2.6l0,0c1.2-4.5,1.5-9.2,1.1-13
		c-0.1-0.8-0.2-1.5-0.4-2.1c-0.1-0.7-0.3-1.3-0.5-1.9c0,0,0,0,0-0.1l0,0l0,0c-0.4-1.2-1-2.1-1.6-2.7c-1.3-1.3-2.8-1.7-4.5-1.5
		c-1.6,0.2-3.3,0.9-4.9,2c-1.6,1-3,2.3-4.2,3.7l0.1-0.3c0.1-0.5,0.2-1,0.3-1.4c0-0.1,0-0.2,0-0.3c-0.1-0.3-0.4-0.6-0.8-0.5
		c-1.7,0.3-3.3,0.7-5,1c-1.8,0.4-3.5,0.7-4.9,1c-0.2,0-0.5,0.2-0.5,0.5c-0.5,2.1-1,4.3-1.5,6.6c-0.5,2.1-0.9,4.3-1.4,6.5
		c0,0,0,0,0,0c-0.7,3.3-2,7.1-3.4,10.2c-0.8,1.8-1.7,3.3-2.5,4.3c-0.7,0.9-1.4,1.4-1.9,1.2c0,0-0.1,0-0.1,0
		c-1.1-0.7,0.1-4.4,1.4-8.8c0.9-3,1.9-6.4,2.3-9.4l0,0c0.5-3.3,0-5.7-1.1-7.2c-0.8-1.1-1.9-1.8-3.1-2c-1.2-0.2-2.6-0.1-4,0.4
		c-2.9,1-5.9,3.4-8.2,6.8c-0.3-0.9-0.8-1.6-1.3-2.1c-1-1.1-2.3-1.6-3.8-1.7c-1.4,0-2.9,0.4-4.4,1.3c-1.8,1-3.5,2.5-5.1,4.4
		c0.1-0.5,0.2-1.1,0.3-1.6l0-0.2c0-0.1,0-0.2,0-0.3c-0.1-0.3-0.4-0.6-0.8-0.5l-10.3,2c-0.3,0-0.5,0.2-0.5,0.5l-7.7,37.9
		c0,0.1,0,0.2,0,0.3c0.1,0.3,0.4,0.6,0.8,0.5c2.4-0.6,4.5-1.3,6.9-2.1c1.4-0.5,3-1,4.7-1.6l0,0c0.2-0.1,0.4-0.2,0.4-0.5l4.9-24.7
		l0,0l0,0c0-0.2,0.1-0.5,0.2-0.7c0.4-1.5,1.1-2.7,1.9-3.5c0.7-0.7,1.3-1,1.8-0.9c0,0,0,0,0,0c0.2,0,0.3,0.2,0.4,0.5
		c0.1,0.5,0.1,1.2-0.1,2.3l0,0l-5,25.1c0,0.1,0,0.2,0,0.3c0.1,0.3,0.5,0.5,0.8,0.4c0.9-0.3,1.7-0.5,2.5-0.8c2.8-0.9,5-1.6,8-2.4
		c0.2,0,0.4-0.2,0.5-0.5l4.4-21.8c0,0,0,0,0,0c0.6-2.5,1.6-4.6,2.8-5.5c0.2-0.2,0.4-0.3,0.6-0.4c0.2-0.1,0.4-0.1,0.6-0.1
		c0,0,0,0,0,0l0,0l0,0h0c0,0,0,0,0.1,0c0.1,0,0.1,0.1,0.2,0.2c0.1,0.2,0.1,0.5,0.1,0.9c0,0.4-0.1,0.9-0.2,1.4c0,0,0,0,0,0
		c-0.5,2-1,3.9-1.5,5.6c-0.6,2.2-1.2,4.1-1.5,6c-0.1,0.8-0.2,1.6-0.3,2.3c-0.3,3,0,5.4,0.7,7.1c0.8,1.9,2.1,3,3.9,3.3
		c0.1,0,0.3,0,0.4,0c1.5,0.1,3.4,0.1,5.6-0.9c1.7-0.8,3.7-2.2,5.8-4.7L90,59.1c-0.3,1.7-0.7,3.3-1,5c-5.9,1.6-11.6,3.5-17.3,5.3
		c-5.9,1.9-11.5,3.9-17.1,5.9c-1.8,0.6-3.1,1.1-4.3,1.5c-11.7,4.2-18,6.4-24.5,3.7c-3.4-1.4-5-5.3-5.3-9.8c-0.1-0.9-0.1-1.8,0-2.7
		c0.1-0.9,0.2-1.9,0.3-2.8l0,0c0.8-4.7,2.9-9.5,6.1-12.4c0.6-0.5,1.2-1,1.9-1.4c0.6-0.4,1.3-0.7,2-0.9c2.7,0.4,5.1,0.3,7.1-0.2
		c2-0.4,3.5-1.2,4.7-2c1.2-0.9,1.9-1.9,2-2.9c0-0.3,0-0.6,0-0.8c-0.4-1.6-1.7-2.4-4.2-2.5c-2.1,0-5.1,0.6-9,1.7
		c-3-1.1-4.1-4.2-4-7.9c0-0.8,0.1-1.5,0.2-2.3c0.1-0.8,0.3-1.5,0.5-2.3v0c1.1-3.9,3.1-7.7,5.6-9.4c0.5-0.3,0.9-0.5,1.4-0.7
		c0.5-0.1,0.9-0.2,1.4-0.2l0,0c0.6,0,1.1,0.3,1.5,0.6c0.4,0.4,0.7,0.9,0.9,1.5c0.2,0.7,0.3,1.5,0.2,2.3c-0.1,2.2-1,4.6-2.8,6.5
		c-0.1,0.1-0.2,0.3-0.2,0.4c0,0.4,0.2,0.7,0.6,0.7c2.3,0.1,4.2-0.1,5.8-0.7c2.1-0.7,3.6-1.9,4.7-3.3c1.1-1.4,1.6-3.1,1.7-4.8
		c0.1-1.3-0.1-2.6-0.5-3.8c-0.2-0.6-0.4-1.1-0.7-1.5c-1.8-2.9-5.3-4-9.2-4c-3.8,0-8.1,0.9-11.5,2.1c-2.3,0.8-4.3,1.7-5.6,2.5
		c-4.5,2.8-7.3,6.7-8.5,10.8c-0.2,0.8-0.4,1.6-0.5,2.4c-0.1,0.8-0.1,1.6-0.1,2.4l0,0c0.2,4.1,2,7.9,5.3,10.3
		c0.6,0.5,1.3,0.9,2.1,1.2c0.1,0.1,0.2,0.1,0.3,0.2c-6,1.7-10.4,4.4-13.5,7.8c-0.7,0.7-1.3,1.5-1.9,2.3c-0.6,0.8-1.1,1.6-1.5,2.4
		l0,0C0.8,64-1.6,73.6,1,81.3c0.3,0.9,0.6,1.7,1,2.6l0,0c2.5,5.7,8.1,10.6,14.8,12.8c1.3,0.4,2.7,0.8,4.1,1c1.4,0.2,2.8,0.3,4.3,0.3
		h0c10.5-0.2,17.3-3,26-6.5c1.9-0.7,3.8-1.5,5.8-2.3c4.8-1.9,9.8-3.7,14.8-5.4c4.7-1.6,9.6-3.1,14.5-4.5c-0.2,0.8-0.3,1.6-0.5,2.4
		c-0.5,2.5-1,4.9-1.5,7.4c0,0.1,0,0.2,0,0.3c0.1,0.3,0.4,0.6,0.8,0.5c1.7-0.4,3.5-0.9,5.2-1.3c1.5-0.4,3.2-0.8,5.2-1.3
		c0.2-0.1,0.4-0.2,0.5-0.5c0.4-1.9,0.7-3.9,1.1-5.9c0.3-1.6,0.6-3.2,0.9-4.7c6-1.4,12.2-2.7,18.3-3.6c6.3-1,12.5-1.7,18.7-2.1
		c8.9-0.5,17.8-0.2,26.2,0.8c1.6,0.2,3.3,0.4,4.9,0.6c1.6,0.2,3.2,0.5,4.8,0.8c0.1,0,0.3,0,0.4,0l26.7-16c0,0,0.1,0,0.1,0l0,0
		c0.2-0.1,0.4-0.3,0.4-0.5C198.7,55.8,198.4,55.4,198.1,55.4z M105.7,39.7c0.2-0.7,0.4-1.4,0.6-2.1c0.2-0.7,0.5-1.4,0.7-2
		c0,0,0,0,0,0l0.1-0.2c1.3-3.2,2.9-5.8,4.8-7.1c0.3-0.2,0.7-0.4,1.1-0.5c0.3-0.1,0.7-0.2,1.1-0.2l0,0c0.1,0,0.1,0,0.2,0
		c0.3,0.1,0.6,0.5,0.9,1.1c0.3,0.7,0.5,1.8,0.5,3c0.1,2.6-0.4,5.9-1.4,9c-0.5,1.6-1.1,3.1-1.9,4.5c-1.1,2-2.3,3.6-3.8,4.6
		c-1.4,0.9-2.9,1.3-4.6,0.9c-0.1,0-0.2-0.1-0.4-0.1C103.9,47,104.7,43.2,105.7,39.7z"/>
</g>
</svg>
