<?xml version="1.0" encoding="utf-8"?>
<!-- Generator: Adobe Illustrator 19.1.0, SVG Export Plug-In . SVG Version: 6.00 Build 0)  -->
<svg version="1.1" id="Layer_1" xmlns="http://www.w3.org/2000/svg" xmlns:xlink="http://www.w3.org/1999/xlink" x="0px" y="0px"
	 viewBox="0 0 276.7 135.4" style="enable-background:new 0 0 276.7 135.4;" xml:space="preserve">
<style type="text/css">
	.st0{fill:none;}
	.st1{fill:#010101;}
</style>
<path class="st0" d="M150.1,68.9c2-1.4,3.8-3.7,5.3-6.4c1-1.9,1.9-4.1,2.6-6.3c1.4-4.4,2.1-8.9,2-12.5c-0.1-1.7-0.3-3.1-0.7-4.1
	c-0.3-0.8-0.7-1.3-1.2-1.5c-0.1,0-0.2,0-0.2,0l0,0c-0.5,0-1,0.1-1.5,0.3c-0.5,0.2-1,0.4-1.5,0.7c-2.7,1.7-4.9,5.3-6.6,9.8l-0.1,0.2
	c0,0,0,0,0,0c-0.3,0.9-0.7,1.8-1,2.8c-0.3,1-0.6,2-0.9,3c-1.4,4.9-2.4,10.2-3.1,15.1c0.2,0.1,0.3,0.1,0.5,0.2
	C146,70.7,148.2,70.2,150.1,68.9z"/>
<path class="st0" d="M257.3,33.5c1-1.5,1.7-3,2.1-4.3c0.3-1.2,0.4-2.4,0-3.2c-0.2-0.5-0.6-0.9-1.1-1.3l0,0l0,0
	c-0.2-0.2-0.5-0.2-0.8-0.2c-0.7,0.1-1.5,0.5-2.4,1.3c-1,0.9-2,2.1-3,3.5c-2.8,4-5.2,9.5-5.5,13.5C251.1,40.6,255,37,257.3,33.5z"/>
<g>
	<path class="st1" d="M179.9,15.5c1.1,1,2.5,1.6,4.1,1.7c0.5,0,1.1,0,1.6-0.1c3.2-0.5,6.1-2.9,7.5-5.8c0.3-0.6,0.5-1.2,0.7-1.8
		c0.2-0.6,0.3-1.3,0.3-1.9v0c0-0.6,0-1.2-0.1-1.7c-0.2-1.7-1-3.1-2.1-4.1c-1.1-1-2.6-1.6-4.2-1.7c-0.5,0-1,0-1.6,0.1
		c-3.2,0.5-6.1,2.8-7.5,5.8c-0.3,0.6-0.5,1.2-0.7,1.8c-0.2,0.6-0.3,1.3-0.3,1.9l0,0c0,0.6,0,1.2,0.1,1.8
		C178.1,13.1,178.8,14.5,179.9,15.5z"/>
	<path class="st1" d="M276.1,39.1c-0.5-0.2-1.1-0.4-2.3-1c-0.7-0.3-1.4-0.6-2.3-1v0c0,0,0,0-0.1,0c-0.5-0.2-1,0.1-1.1,0.6
		c-3.3,9.7-7.9,15.5-12.2,17.9c-1.6,0.9-3.2,1.3-4.6,1.3c-1.3-0.1-2.5-0.6-3.4-1.5c-1.4-1.4-2.3-3.8-2.4-7c4.9-1.6,9.7-4,13.3-7.5
		c0.7-0.7,1.4-1.5,2.1-2.3c0.6-0.8,1.2-1.7,1.7-2.6l0,0c1.7-3.1,2.4-6.2,2.2-9c0-0.5-0.1-1.1-0.2-1.6c-0.1-0.5-0.2-1-0.4-1.5
		c0,0,0,0,0-0.1l0,0l0,0c-1.2-3.9-4-5.8-7.3-6.5c-0.6-0.1-1.3-0.2-1.9-0.2c-0.6,0-1.3,0-1.9,0l0,0c-6.6,0.4-14.8,4.7-19.9,14.3
		c-1,1.8-1.8,3.9-2.5,6.2c-0.7,2.1-1.2,4.5-1.6,7c-1.6,0.9-2.9,1.2-4.1,1.2c-0.9,0-1.7-0.3-2.3-0.7c-0.7-0.4-1.2-1.1-1.7-1.8
		c-0.7-1.3-1.1-2.9-1.2-4.6c5.2-1.9,8.5-4.8,10.3-7.9c0.9-1.6,1.5-3.2,1.7-4.8c0.2-1.6,0.1-3-0.3-4.2c-0.4-1.3-1.2-2.3-2.1-2.8
		c-0.4-0.2-0.7-0.4-1.1-0.5c-2.4-0.9-4.8-0.4-7,0.9c-2.1,1.2-4,3.2-5.3,5.4c-0.1-0.6-0.2-1.1-0.3-1.7c0-0.2-0.1-0.5-0.1-0.7
		c0-0.2,0-0.4-0.1-0.7v0c0,0,0,0,0,0c-0.1-0.5-0.5-0.8-1-0.8c-2.7,0.3-5,0.6-7.2,0.8c-2.5,0.3-5.1,0.6-7.1,0.8
		c-0.4,0-0.7,0.3-0.8,0.7c-0.8,3.4-1.5,6.8-2.3,10.2c-0.7,3.3-1.5,6.7-2.3,10.2c-2.5,9.6-5.3,14.3-7.8,16.1
		c-0.4,0.3-0.8,0.6-1.2,0.7c-0.4,0.1-0.7,0.2-1,0.2h0c-0.4,0-0.5-1.1-0.5-2.5c0.1-1.8,0.5-3.8,0.7-4.8c0.5-2.3,1-4.7,1.4-7.1
		c0.5-2.3,1-4.7,1.4-7.1l0,0c0.5-2.7,1.1-5.5,1.7-8.3c0.4-1.9,0.8-3.8,1.2-5.8c0-0.1,0-0.2,0-0.4c-0.1-0.5-0.5-0.8-1-0.7
		c-3.1,0.5-3.6,0.5-4.3,0.6c-3,0.5-6.1,0.9-10,1.5c-0.4,0-0.7,0.3-0.8,0.7c-1,4.9-1.9,10-2.9,15c-0.6,3.2-1.2,6.5-1.9,9.7l0,0
		c-0.1,0.6-0.3,1.3-0.4,2.1c-0.6,2.7-1.2,5.4-1.2,8.2c0,0,0,0,0,0l0,0c0,4.5,1.3,8.4,4.1,10.3c0.6,0.4,1.2,0.7,1.8,0.9
		c0.7,0.2,1.3,0.4,2.1,0.4l0,0c2.9,0.2,7.2-1,11.2-4.3c0.8-0.6,1.6-1.4,2.3-2.2c0,0,0.1-0.1,0.1-0.1c-0.1,0.4-0.1,0.9-0.2,1.3
		l-0.1,0.5c0,0.1,0,0.2,0,0.3c0.1,0.5,0.5,0.8,1,0.7c2.4-0.4,4.8-0.6,7.1-0.9c2.3-0.2,4.5-0.4,6.8-0.5c0.4,0,0.7-0.3,0.8-0.7l4-17.2
		c0.5-2.3,1.1-4.7,1.6-7.1c0.4-1.8,0.9-3.7,1.3-5.6c0,0.1,0.1,0.2,0.1,0.3c0,1.9,0.3,3.6,0.7,5.2l0,0c0.7,3,2.1,5.3,4.1,6.8
		c2,1.6,4.6,2.4,7.7,2.3c1.3,0,2.7-0.2,4.3-0.5c0.4,3.3,1.5,7.1,3.4,10c0.4,0.6,0.9,1.2,1.4,1.8c0.5,0.5,1,1,1.6,1.4l0,0
		c4.4,3,9.6,3.6,14.3,2.8c0.9-0.2,1.8-0.4,2.7-0.7c0.9-0.3,1.8-0.6,2.6-1v0c4.7-2.1,9.9-7.3,14.2-15.4c0.8-1.6,1.6-3.2,2.4-5
		c0.8-1.8,1.5-3.6,2.1-5.6l0,0h0C276.8,39.7,276.6,39.2,276.1,39.1z M252.1,29.3c1-1.4,2-2.6,3-3.5c0.9-0.8,1.7-1.3,2.4-1.3
		c0.3,0,0.5,0,0.8,0.2l0,0l0,0c0.5,0.3,0.9,0.8,1.1,1.3c0.4,0.9,0.3,2,0,3.2c-0.4,1.4-1.1,2.8-2.1,4.3c-2.4,3.5-6.2,7.1-10.7,9.2
		C247,38.7,249.4,33.3,252.1,29.3z"/>
	<path class="st1" d="M274,76.6c-10.9-1.6-22-2.8-33.2-3.5c-11.3-0.7-22.7-0.7-34.2,0c-11.5,0.8-23,2.3-34.4,4.3
		c-11,1.9-21.9,4.3-32.7,7c0.2-0.8,0.3-1.6,0.5-2.4c0.2-1.1,0.4-2.2,0.6-3.3c2.8,2.1,6.8,2.2,10.8,1.2c0.9-0.2,1.7-0.5,2.6-0.9
		c0.8-0.3,1.7-0.7,2.4-1.2l0,0c4.9-2.8,8.6-7.9,11.1-13.8c0.5-1.1,0.9-2.3,1.3-3.5c0.4-1.2,0.8-2.4,1.1-3.6l0,0
		c1.6-6.2,2.1-12.7,1.5-18c-0.1-1-0.3-2-0.5-3c-0.2-0.9-0.5-1.8-0.7-2.6c0,0,0,0,0-0.1l0,0l0,0c-0.6-1.6-1.4-2.9-2.3-3.8
		c-1.7-1.8-3.9-2.3-6.2-2c-2.2,0.3-4.5,1.3-6.7,2.7c-2.2,1.4-4.2,3.2-5.9,5.1l0.1-0.4c0.1-0.7,0.3-1.3,0.4-2c0-0.1,0-0.2,0-0.4
		c-0.1-0.5-0.6-0.8-1-0.7c-2.3,0.5-4.6,0.9-6.9,1.4c-2.5,0.5-4.8,1-6.8,1.4c-0.3,0.1-0.6,0.3-0.7,0.7c-0.7,3-1.3,6-2,9.1
		c-0.7,3-1.3,6-2,9c0,0,0,0,0,0c-1,4.6-2.8,9.8-4.7,14.1c-1.1,2.4-2.3,4.5-3.5,5.9c-1,1.2-1.9,1.9-2.7,1.7c-0.1,0-0.1,0-0.2-0.1
		c-1.5-0.9,0.1-6.1,1.9-12.2c1.2-4.2,2.6-8.8,3.2-13l0,0c0.7-4.6,0-7.9-1.5-10c-1.1-1.5-2.6-2.4-4.3-2.8c-1.7-0.3-3.6-0.2-5.5,0.5
		c-4,1.3-8.2,4.6-11.4,9.4c-0.5-1.2-1.1-2.2-1.8-3c-1.4-1.5-3.2-2.3-5.2-2.3c-1.9,0-4,0.6-6.1,1.8c-2.4,1.4-4.9,3.4-7.1,6.1
		c0.1-0.8,0.2-1.5,0.4-2.3l0.1-0.3c0-0.1,0-0.2,0-0.3c-0.1-0.5-0.6-0.8-1-0.7l-14.2,2.7c-0.4,0.1-0.7,0.3-0.7,0.7L55,102
		c0,0.1,0,0.3,0,0.4c0.1,0.5,0.6,0.8,1.1,0.7c3.3-0.8,6.3-1.8,9.5-3c2-0.7,4.1-1.4,6.4-2.2l0,0c0.3-0.1,0.5-0.3,0.6-0.7L79.5,63l0,0
		l0,0c0.1-0.3,0.1-0.7,0.2-1c0.6-2.1,1.5-3.7,2.6-4.8c0.9-0.9,1.8-1.4,2.5-1.3c0,0,0,0,0,0c0.3,0.1,0.4,0.3,0.6,0.7
		c0.2,0.7,0.1,1.7-0.1,3.1l0,0l-6.9,34.7c0,0.1,0,0.3,0,0.5c0.1,0.5,0.6,0.7,1.1,0.6c1.3-0.4,2.4-0.8,3.5-1.1
		c3.8-1.2,6.9-2.2,11.1-3.3c0.3-0.1,0.6-0.3,0.7-0.7l6.1-30.2c0,0,0,0,0,0c0.8-3.4,2.2-6.3,3.9-7.6c0.3-0.2,0.6-0.4,0.9-0.5
		c0.3-0.1,0.5-0.1,0.8-0.2c0,0,0,0,0.1,0l0,0l0,0h0c0,0,0.1,0,0.1,0c0.1,0,0.2,0.1,0.2,0.2c0.1,0.3,0.2,0.7,0.2,1.3
		c0,0.5-0.1,1.2-0.2,2c0,0,0,0,0,0c-0.7,2.8-1.4,5.4-2.1,7.8c-0.9,3-1.7,5.7-2.1,8.3c-0.2,1.1-0.3,2.1-0.4,3.1
		c-0.4,4.1-0.1,7.4,0.9,9.8c1.1,2.6,2.9,4.1,5.4,4.5c0.2,0,0.4,0.1,0.5,0.1c2,0.2,4.6,0.1,7.8-1.3c2.4-1.1,5.1-3.1,8-6.5l-0.1,0.5
		c-0.5,2.3-0.9,4.6-1.4,7c-8.1,2.3-16.1,4.8-23.9,7.4c-8.1,2.7-16,5.4-23.7,8.1c-2.4,0.9-4.3,1.5-6,2.1c-16.1,5.8-24.9,8.9-33.9,5.1
		c-4.7-2-7-7.3-7.3-13.5c-0.1-1.2-0.1-2.5,0-3.8c0.1-1.3,0.2-2.6,0.4-3.8l0,0c1.1-6.6,4.1-13.1,8.4-17.1c0.8-0.8,1.7-1.4,2.7-2
		c0.9-0.5,1.8-0.9,2.7-1.2c3.8,0.6,7,0.4,9.8-0.2c2.7-0.6,4.9-1.6,6.4-2.8c1.6-1.2,2.6-2.7,2.8-3.9c0.1-0.4,0.1-0.8,0-1.1
		c-0.5-2.3-2.4-3.4-5.8-3.4c-2.9,0-7.1,0.8-12.5,2.4c-4.2-1.5-5.7-5.8-5.6-10.9c0-1,0.1-2.1,0.3-3.2c0.2-1.1,0.4-2.1,0.7-3.2v0
		c1.5-5.5,4.4-10.6,7.8-13c0.6-0.4,1.3-0.8,1.9-1c0.6-0.2,1.3-0.3,1.9-0.3l0,0c0.9,0,1.6,0.4,2.1,0.9c0.6,0.5,1,1.3,1.2,2.1
		c0.3,0.9,0.4,2,0.3,3.2c-0.2,3-1.4,6.4-3.8,9C50.1,44.8,50,45,50,45.2c0,0.5,0.3,0.9,0.8,0.9c3.1,0.2,5.8-0.2,8.1-0.9
		c2.9-1,5-2.6,6.5-4.6c1.5-2,2.3-4.3,2.4-6.7c0.1-1.8-0.1-3.5-0.7-5.2c-0.3-0.8-0.6-1.5-1-2.1c-2.5-4-7.3-5.5-12.7-5.5
		c-5.3,0-11.1,1.3-16,2.9c-3.2,1.1-6,2.4-7.8,3.5c-6.3,3.9-10.2,9.3-11.7,14.9c-0.3,1.1-0.5,2.2-0.6,3.3c-0.1,1.1-0.2,2.2-0.1,3.3
		l0,0c0.2,5.6,2.8,10.9,7.4,14.2c0.9,0.6,1.9,1.2,2.9,1.7c0.2,0.1,0.3,0.1,0.5,0.2c-8.2,2.3-14.4,6.1-18.7,10.8
		c-0.9,1-1.8,2.1-2.6,3.2c-0.8,1.1-1.5,2.2-2.1,3.3l0,0c-3.3,6.1-6.6,19.3-3,30c0.4,1.2,0.8,2.4,1.3,3.6l0,0
		c3.4,7.9,11.2,14.6,20.5,17.7c1.8,0.6,3.7,1,5.6,1.3c1.9,0.3,3.9,0.4,5.9,0.4h0c14.5-0.3,23.9-4.1,36-9c2.6-1,5.2-2.1,8-3.2
		c6.7-2.6,13.5-5.1,20.5-7.5c6.5-2.2,13.2-4.3,20.1-6.2c-0.2,1.1-0.5,2.3-0.7,3.4c-0.7,3.4-1.4,6.8-2,10.3c0,0.1,0,0.3,0,0.4
		c0.1,0.5,0.6,0.8,1.1,0.7c2.4-0.6,4.8-1.2,7.2-1.8c2-0.5,4.4-1.1,7.2-1.8c0.3-0.1,0.6-0.3,0.7-0.7c0.5-2.7,1-5.4,1.6-8.1
		c0.4-2.2,0.8-4.4,1.3-6.6c8.4-2,16.8-3.7,25.3-5c8.7-1.4,17.3-2.3,25.9-2.8c12.3-0.7,24.5-0.3,36.2,1.1c2.3,0.3,4.5,0.6,6.8,0.9
		c2.2,0.3,4.4,0.7,6.6,1.1c0.2,0,0.4,0,0.6-0.1l36.9-22.1c0,0,0.1,0,0.1,0l0,0c0.3-0.1,0.5-0.4,0.6-0.7
		C274.9,77.1,274.5,76.7,274,76.6z M146.3,54.8c0.3-1,0.6-2,0.9-3c0.3-0.9,0.6-1.9,1-2.8c0,0,0,0,0,0l0.1-0.2
		c1.7-4.5,3.9-8.1,6.6-9.8c0.5-0.3,1-0.5,1.5-0.7c0.5-0.2,1-0.3,1.5-0.3l0,0c0.1,0,0.2,0,0.2,0c0.5,0.1,0.9,0.7,1.2,1.5
		c0.4,1,0.6,2.4,0.7,4.1c0.1,3.6-0.6,8.1-2,12.5c-0.7,2.2-1.6,4.3-2.6,6.3c-1.5,2.7-3.2,5-5.3,6.4c-1.9,1.3-4,1.8-6.4,1.2
		c-0.2,0-0.3-0.1-0.5-0.2C143.9,65,144.9,59.7,146.3,54.8z"/>
</g>
</svg>
