<?xml version="1.0" encoding="utf-8"?>
<!-- Generator: Adobe Illustrator 18.1.1, SVG Export Plug-In . SVG Version: 6.00 Build 0)  -->
<svg version="1.1" id="iconmonstr" xmlns="http://www.w3.org/2000/svg" xmlns:xlink="http://www.w3.org/1999/xlink" x="0px" y="0px"
	 viewBox="0 0 3854 792" enable-background="new 0 0 3854 792" xml:space="preserve">
<path id="magnifier-1" d="M606.9,623L443.7,459.8c23-38.2,38.2-81.6,38.2-130.1c0-132.6-107.1-242.2-242.2-242.2
	C107.1,90,0,197.1,0,332.2c0,132.6,107.1,242.2,242.2,242.2c45.9,0,86.7-12.8,122.4-33.1l163.2,163.2L606.9,623z M89.2,332.2
	c0-84.2,68.8-150.4,150.4-150.4c84.2,0,150.4,68.9,150.4,150.4c0,84.1-68.9,150.4-150.4,150.4S89.2,413.9,89.2,332.2z"/>
<line fill="none" stroke="#000000" stroke-width="26" stroke-miterlimit="10" x1="702" y1="704.5" x2="3706" y2="704.5"/>
</svg>
